<svg xmlns="http://www.w3.org/2000/svg" width="67" height="67" viewBox="0 0 67 67">
    <g fill="none" fill-rule="evenodd">
        <g>
            <g transform="translate(-617.000000, -513.000000) translate(617.000000, 513.000000)">
                <circle cx="33.5" cy="33.5" r="33" fill="#FFF" stroke="#B6C1F3"/>
                <g fill="#0D1555">
                    <path d="M6.872 11.496c.28.28.28.737 0 1.02-.281.28-.739.28-1.02 0L.215 6.875c-.015-.014-.03-.03-.042-.044L.17 6.83l-.02-.026L.145 6.8l-.007-.01-.001-.002-.007-.01-.006-.01-.003-.004-.006-.01-.004-.005-.004-.007-.008-.013C.035 6.621 0 6.496 0 6.362c0-.134.035-.259.1-.365l.007-.013.004-.008.004-.004.006-.01.003-.004.006-.01.007-.01.001-.002.007-.01.006-.006.02-.026.002-.001.042-.045L5.852.211c.281-.281.739-.281 1.02 0 .28.28.28.735 0 1.018L2.458 5.642h17.726c.398 0 .72.323.72.72 0 .398-.322.72-.72.72H2.458l4.414 4.414z" transform="translate(23.000000, 27.000000)"/>
                </g>
            </g>
        </g>
    </g>
</svg>
